Coordinates
version=1
nRows=21
nColumns=33
inDegrees=yes

Units are S.I. units (second, meters, Newtons, ...)
Angles are in degrees.

endheader
time	ground_thorax_rot_x	ground_thorax_rot_y	ground_thorax_rot_z	ground_thorax_tx	ground_thorax_ty	ground_thorax_tz	clav_prot_r	clav_elev_r	scapula_abduction_r	scapula_elevation_r	scapula_upward_rot_r	scapula_winging_r	shoulder_elv_r	plane_of_elev_r	axial_rot_r	elbow_flexion_r	pro_sup_r	wrist_flex_r	wrist_dev_r	clav_prot_l	clav_elev_l	scapula_abduction_l	scapula_elevation_l	scapula_upward_rot_l	scapula_winging_l	shoulder_elv_l	plane_of_elev_l	axial_rot_l	elbow_flexion_l	pro_sup_l	wrist_flex_l	wrist_dev_l
      3.41000000	     -0.89912234	     10.71921044	      2.14241802	     -0.18477810	      0.99905797	      0.01024529	    -14.68594182	    -17.79308856	    -18.81734290	    -11.41678407	      3.78652962	      7.91700897	     43.10285758	    -13.30480771	     21.71472520	     38.20806591	     10.85856146	     -2.21432127	     21.68828601	      8.45870379	    -10.12649825	    -15.73580966	     -1.63193238	    -11.90450624	      2.48889388	     56.61788988	     -1.54792465	    -12.26611699	     42.66721190	      8.79016717	     24.34353935	      5.19105281
      3.42000000	     -0.84816991	     10.63888366	      2.28399062	     -0.18422897	      0.99952085	      0.01023994	    -14.34404443	    -18.24712925	    -18.19174446	    -11.84646067	      3.80871873	      8.17244187	     43.12850248	    -13.00994803	     21.94575743	     36.27652285	     11.19744415	     -2.58823010	     21.65026530	      8.84058129	    -10.55083993	    -16.40672347	     -1.23760150	    -11.86731326	      2.63927212	     56.63377271	     -1.19164305	    -12.80295181	     40.79260461	      9.16532856	     24.41851188	      5.40062313
      3.43000000	     -0.78850072	     10.86807539	      1.87450886	     -0.18367534	      0.99935139	      0.01035772	    -14.38110496	    -18.27501389	    -18.13683889	    -11.95303936	      4.02996122	      8.16243961	     42.51068341	    -11.60060771	     21.30795454	     33.71175193	     11.79444299	     -1.80974022	     20.93848083	      9.51587930	    -10.52669891	    -17.61277965	     -1.18506254	    -11.67718574	      3.18888904	     56.47010125	      0.18679532	    -12.82650521	     38.27014417	      9.76896865	     24.33741576	      4.04514404
      3.44000000	     -0.77604717	     10.85332393	      1.66709931	     -0.18327824	      0.99934964	      0.01041329	    -14.08338393	    -18.59284245	    -17.51248686	    -12.30878307	      4.21232014	      8.30700267	     42.42184388	    -10.95545647	     21.62342600	     31.89397022	     12.28382483	     -1.80935314	     20.74117039	     10.07123398	    -10.67006308	    -18.61466692	     -0.97808725	    -11.48030321	      3.59945411	     56.55077449	      0.87164438	    -13.43894762	     36.38839536	     10.24616525	     24.42682602	      3.74124433
      3.45000000	     -0.70850683	     10.85931245	      1.56335708	     -0.18279696	      0.99959448	      0.01040119	    -13.86740560	    -18.88441743	    -17.05902129	    -12.62379274	      4.33683501	      8.45653182	     42.30718269	    -10.31147879	     21.64288688	     29.97070495	     12.74597640	     -1.80510797	     20.41541098	     10.52222079	    -10.86454488	    -19.41969577	     -0.74878691	    -11.34047406	      3.90288068	     56.46484292	      1.55276617	    -13.84878711	     34.47288199	     10.60440913	     24.48106384	      3.45703153
      3.46000000	     -0.77158162	     11.12750516	      1.68142365	     -0.18223874	      0.99935116	      0.01054450	    -14.00637194	    -18.69798186	    -17.24417573	    -12.49173400	      4.45792367	      8.33038952	     41.55370776	     -9.22255974	     21.25456075	     27.82033499	     13.63708913	     -0.81880912	     19.47628809	     11.20817482	    -10.55937626	    -20.61719142	     -0.97794433	    -11.23134463	      4.57347837	     55.96468297	      2.72621448	    -13.81646741	     32.03746455	     10.99557399	     24.39159524	      1.80722964
      3.47000000	     -0.75423558	     11.12250113	      1.47695509	     -0.18177823	      0.99960230	      0.01062485	    -13.79019126	    -19.05193235	    -16.77989481	    -12.87169975	      4.59359079	      8.52317221	     41.52970987	     -8.74124847	     21.45188545	     26.37876219	     14.13404624	     -0.94764658	     19.32653145	     11.67778678	    -10.71383100	    -21.46432860	     -0.76370001	    -11.04220416	      4.92670627	     55.99611617	      3.28617054	    -14.21735926	     30.42210191	     11.39872625	     24.42830326	      1.68206802
      3.48000000	     -0.67544518	     11.14971249	      1.32306121	     -0.18115949	      0.99992283	      0.01056615	    -13.65765565	    -19.32248122	    -16.47733899	    -13.16547532	      4.70230892	      8.67455669	     41.48523349	     -8.20553777	     21.37658929	     24.88271172	     14.60884459	     -0.98216728	     18.99055363	     12.05373536	    -10.85648763	    -22.13567668	     -0.58083770	    -10.90465693	      5.19996486	     55.84900842	      3.93344587	    -14.38870159	     28.79479533	     11.66155496	     24.44405111	      1.48244682
      3.49000000	     -0.82712066	     11.44085896	      1.45476578	     -0.18069349	      0.99964423	      0.01071180	    -13.83665361	    -19.17594025	    -16.77206788	    -13.04425700	      4.73686467	      8.59258234	     40.82718784	     -7.33244100	     20.88639571	     23.27500745	     15.64675940	     -0.15166792	     18.12549028	     12.75773427	    -10.39971193	    -23.35868178	     -0.94673928	    -10.81674270	      5.96255801	     55.34222059	      5.05225282	    -14.07265402	     26.70873829	     11.91833330	     24.27447528	      0.02495873
      3.50000000	     -0.80864637	     11.38959073	      1.52050465	     -0.18014743	      1.00018757	      0.01081688	    -13.67977688	    -19.48014648	    -16.47253254	    -13.34119275	      4.75967490	      8.78221050	     40.83092155	     -7.16469020	     20.93826220	     22.23278271	     15.87311358	     -0.42101463	     18.12458344	     12.98634471	    -10.65930159	    -23.75520922	     -0.69503842	    -10.75967944	      6.06622525	     55.31634897	      5.27563996	    -14.23362975	     25.53534932	     12.15455932	     24.30293867	      0.22411245
      3.51000000	     -0.73947617	     11.37595890	      1.36214154	     -0.17959234	      1.00060633	      0.01088751	    -13.56848264	    -19.75253398	    -16.22617817	    -13.62650540	      4.83170832	      8.95033546	     40.85842155	     -6.82560735	     20.80917707	     21.22509693	     16.10091894	     -0.60239483	     17.99932027	     13.19863558	    -10.86723826	    -24.14280108	     -0.46057348	    -10.63430353	      6.18412022	     55.26986537	      5.71512104	    -14.18304376	     24.31478492	     12.32249994	     24.30096959	      0.33697862
      3.52000000	     -0.72976908	     11.49156320	      0.88373573	     -0.17891904	      1.00042675	      0.01094840	    -13.60815805	    -19.81364358	    -16.21876207	    -13.73319809	      4.96202063	      8.97896661	     40.67407578	     -6.03193832	     20.13623732	     20.29094829	     16.50510691	     -0.29430129	     17.52005671	     13.58069023	    -10.65595945	    -24.84124835	     -0.57188483	    -10.45713816	      6.61872109	     55.12714395	      6.77709413	    -13.43913835	     22.90675894	     12.30537344	     24.18954740	     -0.17067950
      3.53000000	     -0.71579960	     11.66916837	      0.82965083	     -0.17860415	      1.00044406	      0.01098552	    -13.61860016	    -19.88787993	    -16.18003662	    -13.83885312	      5.05667179	      9.02173385	     40.54097627	     -5.68360369	     19.64862686	     19.30707683	     16.87163662	     -0.15868638	     17.32617825	     14.05174896	    -10.53269415	    -25.62806172	     -0.69121620	    -10.49069153	      7.06241188	     54.93750777	      7.52903652	    -12.97576029	     21.76315126	     12.37127654	     24.14709074	     -0.51128218
      3.54000000	     -0.76085060	     11.67949842	      1.07707277	     -0.17811408	      1.00076265	      0.01109184	    -13.60683184	    -19.99817593	    -16.18001360	    -13.92890561	      5.00460190	      9.10696182	     40.42437013	     -5.64913469	     19.44486825	     18.72965664	     16.95929390	     -0.27210826	     17.32345238	     14.17660968	    -10.67558737	    -25.82431954	     -0.58048203	    -10.52546507	      7.10721915	     54.83852143	      7.62948059	    -12.77232198	     21.02532133	     12.43639049	     24.14384464	     -0.42686839
      3.55000000	     -0.71416819	     11.78319382	      0.66915408	     -0.17763619	      1.00070934	      0.01118870	    -13.64787465	    -20.10151267	    -16.16933892	    -14.07885610	      5.13993235	      9.16673657	     40.36298239	     -5.15025213	     18.71441340	     18.09672065	     17.08402346	     -0.22223317	     17.21203276	     14.49971223	    -10.59593898	    -26.39626263	     -0.60821004	    -10.42876206	      7.43414939	     54.81036331	      8.38545514	    -11.98103297	     20.10245704	     12.34516487	     24.10121698	     -0.53287027
      3.56000000	     -0.71815749	     11.76971017	      0.71318069	     -0.17687190	      1.00060813	      0.01127728	    -13.64136025	    -20.11958243	    -16.15824986	    -14.09474938	      5.13635125	      9.17877216	     40.34720113	     -5.12894448	     18.70507750	     18.08825799	     17.08514016	     -0.22406570	     17.21219633	     14.50897585	    -10.62125646	    -26.41202739	     -0.58560257	    -10.42775863	      7.43433594	     54.79258565	      8.42037816	    -11.97823423	     20.09522963	     12.34495007	     24.10182903	     -0.53269396
      3.57000000	     -0.82908130	     12.11821701	      0.88541244	     -0.17737971	      1.00040195	      0.01139612	    -13.68305743	    -19.96059470	    -16.20327591	    -13.96379059	      5.20338588	      9.06144252	     39.96331165	     -4.81530226	     17.16099522	     17.00269805	     17.37041072	      0.04637592	     17.17459410	     15.44095825	    -10.22291176	    -27.90223660	     -1.05452383	    -10.74821118	      8.34939781	     54.53374154	      9.44113285	    -10.47419641	     18.71609949	     12.08055986	     24.06604138	     -0.88091251
      3.58000000	     -0.83816120	     12.11294640	      0.90264076	     -0.17677760	      1.00034020	      0.01148677	    -13.67656096	    -19.97784406	    -16.18993383	    -13.98100611	      5.20613614	      9.07103027	     39.95515073	     -4.79287658	     17.15768429	     16.99959576	     17.37273218	      0.04353252	     17.17427765	     15.45040311	    -10.24247728	    -27.91610632	     -1.03965972	    -10.75378080	      8.34965329	     54.51672344	      9.46017412	    -10.47930099	     18.70653202	     12.08382582	     24.06730645	     -0.87784814
      3.59000000	     -0.77577741	     12.15030737	      0.85597409	     -0.17693157	      1.00071095	      0.01157825	    -13.62469057	    -20.15859018	    -16.04919896	    -14.18101127	      5.28025931	      9.18495343	     40.00126637	     -4.67530335	     16.95148980	     16.25951923	     17.48599938	     -0.18791779	     17.18528467	     15.63201628	    -10.42931241	    -28.23129787	     -0.84839856	    -10.68520284	      8.45113019	     54.46161838	      9.66005236	    -10.45897711	     17.86471425	     12.22451694	     24.07560496	     -0.67414831
      3.60000000	     -0.78599430	     12.15126371	      0.85692216	     -0.17647249	      1.00061493	      0.01167263	    -13.62204923	    -20.16634350	    -16.04161977	    -14.19248916	      5.28513066	      9.18990445	     39.99892925	     -4.65664034	     16.94557099	     16.26281612	     17.48578905	     -0.18757025	     17.18455049	     15.63757737	    -10.43927103	    -28.23761087	     -0.84524958	    -10.69603565	      8.45221628	     54.44700101	      9.66427564	    -10.45945304	     17.85896593	     12.22557716	     24.07635899	     -0.67378873
      3.61000000	     -0.78948670	     12.14980319	      0.86031133	     -0.17606665	      1.00057726	      0.01181962	    -13.62164279	    -20.16903241	    -16.03914610	    -14.19399962	      5.28761863	      9.19224077	     39.99943701	     -4.65189085	     16.94431621	     16.26287254	     17.48574128	     -0.18769434	     17.18433921	     15.64031806	    -10.44070428	    -28.24134075	     -0.84282887	    -10.69713756	      8.44812800	     54.44392042	      9.66735231	    -10.45996591	     17.85781707	     12.22585726	     24.07650869	     -0.67366948
